<?xml version="1.0" encoding="UTF-8" standalone="no"?>
<svg
   version="1.1"
   width="130.48096"
   height="130.56964"
   style="clip-rule:evenodd;fill-rule:evenodd;image-rendering:optimizeQuality;shape-rendering:geometricPrecision;text-rendering:geometricPrecision"
   id="svg2"
   xmlns="http://www.w3.org/2000/svg"
   xmlns:svg="http://www.w3.org/2000/svg">
  <defs
     id="defs2" />
  <g
     id="g2"
     transform="matrix(0.25299592,0,0,0.25299592,-238.36126,-105.36343)"
     style="stroke-width:3.95263">
    <path
       style="opacity:1;fill:#241f1c;stroke-width:3.95263"
       fill="#fcfcfc"
       d="m 1023.5,416.5 c 74.57,-1.315 126.07,32.351 154.5,101 20.98,57.427 20.64,114.761 -1,172 -10.51,23.539 -19.85,47.539 -28,72 -7.42,28.69 -3.08,55.357 13,80 20.54,20.696 43.37,23.53 68.5,8.5 14.12,-13.063 22.28,-29.23 24.5,-48.5 1.73,-21.481 -1.6,-42.148 -10,-62 -14.91,-30.736 -26.25,-62.736 -34,-96 -8.76,-52.264 -1.09,-101.93 23,-149 35.94,-60.331 88.77,-85.165 158.5,-74.5 35.6,11.355 56.1,35.522 61.5,72.5 2.04,31.847 -7.29,59.847 -28,84 -15.9,17.186 -34.07,31.353 -54.5,42.5 -16.64,8.318 -33.3,16.651 -50,25 -12.65,6.32 -23.15,15.154 -31.5,26.5 -5.98,13.724 -2.82,24.89 9.5,33.5 5.72,3.527 11.72,6.527 18,9 18,6 36,12 54,18 68.15,23.795 95.98,71.295 83.5,142.5 -13,38.685 -40,58.352 -81,59 -19.44,0.111 -35.77,-6.889 -49,-21 -0.59,-0.983 -0.26,-1.65 1,-2 50,-16.002 68,-49.335 54,-100 -4.5,-10.353 -10.5,-19.686 -18,-28 -18.69,-16.7 -38.53,-31.867 -59.5,-45.5 -30.9,-23.018 -38.73,-52.184 -23.5,-87.5 6.62,-11.628 15.12,-21.795 25.5,-30.5 20.67,-16 41.33,-32 62,-48 12.7,-10.923 22.86,-23.756 30.5,-38.5 10.82,-36.698 -3.01,-55.032 -41.5,-55 -49.9,3.692 -88.06,26.692 -114.5,69 -25.14,45.665 -24.48,90.999 2,136 9.67,15.333 19.33,30.667 29,46 9.41,15.155 15.75,31.488 19,49 2.49,26.367 -4.17,50.034 -20,71 -15.29,16.229 -34.13,25.395 -56.5,27.5 -32.21,4.374 -60.04,-4.459 -83.5,-26.5 -16.29,-21.156 -23.29,-45.156 -21,-72 3.19,-17.586 9.53,-33.919 19,-49 15.36,-21.726 28.7,-44.726 40,-69 19.58,-60.58 5.08,-111.413 -43.5,-152.5 -28.22,-21.961 -60.22,-31.628 -96,-29 -25.34,6.844 -34.511,23.011 -27.5,48.5 6.68,17.172 17.18,31.672 31.5,43.5 18.71,15.049 37.71,29.716 57,44 11.96,9.619 22.12,20.785 30.5,33.5 15.34,32.328 9.84,60.495 -16.5,84.5 -15.39,11.721 -31.05,23.054 -47,34 -12.25,8.919 -22.42,19.752 -30.5,32.5 -23.95,55.423 -7.45,93.09 49.5,113 -15.1,15.452 -33.6,22.785 -55.5,22 -45.38,-4.043 -71.38,-28.71 -78,-74 -5.325,-51.822 14.509,-90.322 59.5,-115.5 25.16,-11.833 51.16,-21.499 78,-29 10.83,-3.326 20.33,-8.826 28.5,-16.5 7.66,-11.439 6.99,-22.439 -2,-33 -8.18,-8.173 -17.35,-15.006 -27.5,-20.5 -19.19,-9.426 -38.19,-19.093 -57,-29 -24.646,-13.977 -44.813,-32.811 -60.5,-56.5 -17.766,-30.515 -20.1,-62.182 -7,-95 15.077,-26.956 37.91,-42.623 68.5,-47 z"
       id="path2" />
  </g>
</svg>
